<svg width="10" height="8" viewBox="0 0 10 8" fill="none" xmlns="http://www.w3.org/2000/svg">
<path d="M6.625 7.70003C6.45 7.70003 6.3 7.57502 6.25 7.40002C6.2 7.20002 6.325 7.00002 6.525 6.95003L8.9 6.42503C9.1 6.37503 9.3 6.50002 9.35 6.70003C9.4 6.90002 9.275 7.10002 9.075 7.15002L6.7 7.67503C6.675 7.70003 6.65 7.70003 6.625 7.70003ZM3.375 7.70003H3.3L0.925 7.17503C0.725 7.12503 0.6 6.92503 0.65 6.72503C0.7 6.52503 0.9 6.40002 1.1 6.45003L3.475 6.97503C3.675 7.02503 3.8 7.22503 3.75 7.42503C3.7 7.57503 3.55 7.70003 3.375 7.70003ZM3.375 4.20002H3.3L0.925 3.67503C0.75 3.62503 0.625 3.47503 0.625 3.30003V0.675024C0.625 0.550024 0.675 0.450024 0.775 0.375024C0.875 0.300024 0.975 0.275024 1.1 0.300024L3.475 0.825025C3.65 0.875025 3.775 1.02502 3.775 1.20002V3.82502C3.775 3.95002 3.725 4.05002 3.625 4.12503C3.55 4.17502 3.45 4.20002 3.375 4.20002ZM1.375 3.00002L3 3.35002V1.50002L1.375 1.15002V3.00002ZM6.625 4.20002C6.55 4.20002 6.45 4.17502 6.4 4.12503C6.3 4.05002 6.25 3.95002 6.25 3.82502V1.20002C6.25 1.02502 6.375 0.875025 6.55 0.825025L8.925 0.300024C9.025 0.275024 9.15 0.300024 9.25 0.375024C9.35 0.450024 9.4 0.550024 9.4 0.675024V3.30003C9.4 3.47503 9.275 3.62503 9.1 3.67503L6.725 4.20002H6.625ZM7 1.50002V3.35002L8.625 3.00002V1.15002L7 1.50002ZM6.625 6.20002C6.45 6.20002 6.3 6.07503 6.25 5.90002C6.2 5.70003 6.325 5.50002 6.525 5.45002L8.9 4.92502C9.1 4.87503 9.3 5.00002 9.35 5.20002C9.4 5.40002 9.275 5.60003 9.075 5.65002L6.7 6.17502C6.675 6.20003 6.65 6.20002 6.625 6.20002Z" fill="#8E8E8E"/>
</svg>
